<?xml version="1.0" encoding="utf-8"?>
<!-- Generator: Adobe Illustrator 22.1.0, SVG Export Plug-In . SVG Version: 6.00 Build 0)  -->
<svg version="1.1" id="Capa_1" xmlns="http://www.w3.org/2000/svg" xmlns:xlink="http://www.w3.org/1999/xlink" x="0px" y="0px"
	 viewBox="0 0 75.4 29.2" style="enable-background:new 0 0 75.4 29.2;" xml:space="preserve">
<style type="text/css">
	.st0{fill:#60C0D6;}
	.st1{fill:none;stroke:#B2B2B2;stroke-width:0.25;stroke-miterlimit:10;}
</style>
<g>
	<g>
		<path class="st0" d="M21.4,5.8c0-0.2,0-0.3,0-0.4c0-0.1,0-0.2-0.1-0.3v0c0-0.1,0-0.1,0-0.1c0,0,0-0.1,0-0.1c0-0.1,0.1-0.2,0.2-0.2
			s0.2-0.1,0.4-0.1c0.4,0,0.7,0.1,1,0.2c0.2,0.1,0.4,0.2,0.6,0.4c0.2,0.2,0.3,0.4,0.4,0.7c0.1,0.3,0.2,0.6,0.3,0.9
			c0.1,0.3,0.1,0.6,0.2,1c0,0.3,0.1,0.6,0.1,0.9l0,0.3c0,0.5,0.1,1,0.1,1.5c0,0.5,0.1,1.1,0.1,1.7c0,0.7,0.1,1.4,0.1,2
			c0,0.6,0.1,1.2,0.2,1.6c0.3-0.6,0.7-1.3,1.1-2.1c0.4-0.8,0.8-1.5,1.3-2.3c0.4-0.8,0.9-1.5,1.3-2.2c0.4-0.7,0.8-1.4,1.1-1.9V7.1
			c0-0.1,0-0.2,0-0.3c0-0.1,0-0.1-0.1-0.2c0,0,0-0.1,0-0.1c0,0,0-0.1,0-0.1c0-0.1,0-0.2,0.1-0.2c0.1,0,0.2-0.1,0.3-0.1
			c0.3,0,0.6,0,0.7,0.1c0.2,0.1,0.3,0.2,0.4,0.3c0.1,0.1,0.2,0.3,0.2,0.4c0,0.2,0,0.3,0,0.5c0,0.4-0.1,0.9-0.2,1.5
			c-0.1,0.6-0.2,1.2-0.4,1.8c-0.1,0.6-0.3,1.3-0.5,2c-0.2,0.7-0.3,1.4-0.5,2c-0.2,0.7-0.3,1.2-0.4,1.7c-0.1,0.5-0.2,0.9-0.3,1.3
			c-0.1,0.4-0.1,0.7-0.2,1c0,0.3-0.1,0.5-0.1,0.8c0,0.3,0,0.7,0,1c0,0.3,0.1,0.6,0.2,0.9c0.1,0.3,0.2,0.5,0.4,0.7s0.5,0.3,0.8,0.4
			c0,0,0.1,0,0.2,0c0.1,0,0.2,0,0.2,0c0.1,0,0.2,0,0.3,0s0.2,0,0.3,0c0.1,0,0.2,0,0.2,0.1c0.1,0,0.1,0.1,0.1,0.1
			c0,0.1-0.1,0.2-0.3,0.4c-0.6,0.1-1.1,0.2-1.6,0.1c-0.6,0-1.1-0.2-1.4-0.4c-0.4-0.2-0.6-0.5-0.8-0.9c-0.2-0.4-0.3-0.8-0.3-1.3
			c0-0.5,0-1,0-1.4c0-0.4,0.1-0.9,0.2-1.3c0.1-0.4,0.2-0.8,0.2-1.2c0.1-0.3,0.1-0.6,0.2-0.9c0.1-0.3,0.2-0.7,0.2-1
			c0.1-0.4,0.2-0.7,0.3-1.1c0.1-0.4,0.2-0.7,0.3-1c0.1-0.3,0.1-0.6,0.2-0.8c0.1-0.2,0.1-0.5,0.2-0.7c0.1-0.2,0.1-0.5,0.2-0.7
			c0-0.2,0.1-0.5,0.2-0.7c-0.1,0.1-0.1,0.3-0.2,0.4c-0.1,0.1-0.2,0.3-0.3,0.5c-0.1,0.2-0.3,0.5-0.4,0.8c-0.2,0.3-0.4,0.7-0.6,1.1
			c-0.3,0.5-0.6,1-0.9,1.7c-0.4,0.6-0.8,1.4-1.3,2.3v0c0,0.1,0,0.1-0.1,0.2c0,0.1,0,0.1-0.1,0.2c-0.1,0.2-0.2,0.4-0.3,0.5
			c-0.1,0.1-0.3,0.2-0.5,0.3c-0.2,0-0.3,0-0.4,0c-0.1,0-0.2-0.1-0.3-0.1c-0.1-0.1-0.2-0.2-0.2-0.3c-0.1-0.1-0.1-0.2-0.1-0.3
			c-0.1-0.3-0.2-0.7-0.2-1.2c-0.1-0.5-0.1-1-0.2-1.5c0-0.5-0.1-1.1-0.1-1.7c0-0.6-0.1-1.2-0.1-1.7L23,9.6c-0.2,0.5-0.3,0.9-0.4,1.4
			c-0.1,0.4-0.3,0.8-0.4,1.3c-0.2,0.7-0.4,1.4-0.6,2.1c-0.2,0.6-0.4,1.3-0.7,1.9c-0.3,0.9-0.6,1.7-1,2.5c-0.4,0.8-0.8,1.6-1.3,2.3
			c-0.5,0.7-1,1.4-1.6,2c-0.6,0.6-1.3,1.1-2,1.5c-0.4,0.2-0.8,0.4-1.2,0.5c-0.4,0.1-0.9,0.2-1.3,0.2c-0.3,0-0.5,0-0.8-0.1
			c-0.3,0-0.5-0.1-0.8-0.2h0c-0.6-0.2-1.1-0.4-1.5-0.8c-0.4-0.3-0.7-0.8-1-1.2c-0.3-0.5-0.4-1-0.5-1.5c-0.1-0.6-0.1-1.2-0.1-1.8
			c0-0.4,0.1-0.9,0.2-1.4c0.2-0.6,0.4-1.2,0.7-1.8c0.3-0.6,0.7-1.1,1.1-1.5c0.4-0.4,0.9-0.8,1.4-1.1c0.5-0.3,1-0.5,1.6-0.5
			c0.5,0,1,0.1,1.4,0.3c0.4,0.2,0.7,0.5,0.9,0.9c0.2,0.4,0.4,0.8,0.5,1.3c0.1,0.5,0.1,1,0.1,1.5c0,0.1,0,0.2-0.1,0.4
			c0,0.1,0,0.3-0.1,0.4c0,0,0,0.1,0,0.1c0,0.1,0,0.2-0.1,0.3c0,0.1-0.1,0.2-0.1,0.3c0,0.1-0.1,0.2-0.2,0.3c-0.1,0.1-0.1,0.1-0.2,0.1
			c-0.1,0-0.2,0-0.3-0.1c0-0.1,0-0.1,0-0.2c0-0.1,0-0.1,0-0.2c0-0.1,0-0.1,0-0.2c0,0,0-0.1,0-0.1c0,0,0-0.1,0,0
			c0-0.2,0.1-0.3,0.1-0.5c0-0.2,0.1-0.4,0.1-0.6c0-0.3,0-0.6,0-0.9c0-0.3-0.1-0.6-0.2-0.8c-0.1-0.2-0.2-0.5-0.4-0.6
			c-0.2-0.2-0.4-0.3-0.6-0.3c-0.3-0.1-0.6,0-1,0.2c-0.4,0.2-0.8,0.5-1.1,0.8c-0.4,0.4-0.8,0.8-1.1,1.3c-0.4,0.5-0.6,1-0.9,1.6
			c-0.1,0.3-0.2,0.6-0.3,0.9c-0.1,0.3-0.1,0.6-0.2,0.9c0,0.4,0,0.9,0,1.3c0.1,0.4,0.2,0.8,0.3,1.1c0.1,0.3,0.3,0.6,0.6,0.8
			c0.2,0.2,0.5,0.4,0.8,0.4h0c0.1,0,0.1,0,0.2,0c0.1,0,0.1,0,0.2,0c0.6,0,1.2-0.1,1.8-0.4c0.5-0.3,1.1-0.7,1.5-1.1
			c0.5-0.5,0.9-1,1.3-1.6c0.4-0.6,0.8-1.2,1.1-1.9c0.3-0.7,0.6-1.3,0.9-1.9c0.3-0.6,0.5-1.2,0.7-1.8c0.1-0.3,0.3-0.8,0.5-1.3
			s0.4-1.1,0.6-1.8c0.2-0.6,0.4-1.3,0.6-2c0.2-0.7,0.4-1.3,0.5-1.9c0.2-0.6,0.3-1.1,0.4-1.5C21.4,6.3,21.4,6,21.4,5.8z"/>
	</g>
	<g>
		<path class="st0" d="M38.7,13.9c0,0-0.1,0.1-0.1,0.1c-0.1,0-0.1,0-0.2,0c-0.1,0-0.2-0.1-0.3-0.2c0-0.1,0.1-0.2,0.1-0.3
			c0-0.1,0-0.2,0-0.3c0-0.2,0-0.4,0-0.7c0-0.2-0.1-0.4-0.2-0.6c-0.1-0.2-0.2-0.3-0.4-0.5c-0.2-0.1-0.4-0.2-0.6-0.2
			c-0.3,0-0.6,0.1-0.9,0.4c-0.3,0.2-0.6,0.5-0.9,0.9c-0.3,0.4-0.5,0.8-0.8,1.2c-0.2,0.5-0.5,0.9-0.7,1.4c-0.2,0.5-0.3,0.9-0.5,1.3
			c-0.1,0.4-0.2,0.7-0.2,1c0,0.1,0,0.2,0,0.4c0,0.1,0,0.3,0.1,0.4c0,0.1,0.1,0.2,0.2,0.3c0.1,0.1,0.2,0.1,0.4,0.1
			c0.3,0,0.5-0.1,0.8-0.4c0.3-0.3,0.6-0.6,0.9-1c0.3-0.4,0.5-0.8,0.8-1.2c0.2-0.4,0.4-0.8,0.6-1.1c0-0.1,0.1-0.2,0.1-0.3
			c0.1-0.1,0.1-0.3,0.1-0.4c0-0.1,0-0.2,0.1-0.2c0.1,0,0.2-0.1,0.4-0.1c0.5,0,0.9,0.2,1.1,0.4c0.2,0.2,0.3,0.4,0.3,0.7
			c0,0.3,0,0.6-0.1,0.9c-0.1,0.3-0.1,0.6-0.2,0.9c0,0.1,0,0.2,0,0.3c0,0.1,0,0.3-0.1,0.4c0,0.2,0,0.3,0,0.5c0,0.2,0,0.3,0,0.4
			c0,0.1,0.1,0.2,0.1,0.2c0.1,0,0.1,0,0.2-0.1c0.2-0.2,0.4-0.5,0.7-0.8c0.2-0.3,0.5-0.7,0.7-1c0.2-0.4,0.4-0.7,0.7-1.1
			c0.2-0.4,0.4-0.7,0.6-1c0.1-0.2,0.2-0.4,0.3-0.6c0.1-0.2,0.2-0.3,0.2-0.5c0.1,0,0.1,0,0.2,0c0.1,0,0.1,0,0.2,0.1
			c0,0,0.1,0.1,0.1,0.2l-0.1,0.3c-0.1,0.2-0.3,0.5-0.4,0.8c-0.2,0.3-0.3,0.6-0.5,1c-0.2,0.4-0.4,0.7-0.6,1.1c-0.2,0.4-0.4,0.7-0.6,1
			c-0.2,0.3-0.4,0.6-0.6,0.9c-0.2,0.3-0.4,0.5-0.6,0.6c-0.2,0.1-0.4,0.3-0.6,0.4c-0.2,0.1-0.5,0.1-0.7,0.1c-0.3,0-0.5-0.1-0.7-0.3
			c-0.2-0.2-0.3-0.5-0.4-0.8c-0.1-0.3-0.1-0.6-0.1-0.9c0-0.3,0-0.6,0-0.8c0,0,0,0,0,0c0,0,0,0,0-0.1c-0.2,0.4-0.5,0.8-0.8,1.1
			c-0.3,0.4-0.6,0.7-0.9,1c-0.3,0.3-0.6,0.5-1,0.7c-0.3,0.2-0.7,0.3-1,0.3c-0.3,0-0.6-0.1-0.8-0.2c-0.2-0.1-0.4-0.3-0.6-0.5
			c-0.1-0.2-0.2-0.4-0.3-0.7c-0.1-0.3-0.1-0.5-0.1-0.8c0-0.1,0-0.1,0-0.2c0-0.1,0-0.1,0-0.2c0.1-0.4,0.2-0.9,0.3-1.4
			c0.2-0.5,0.4-1,0.6-1.6c0.3-0.5,0.6-1.1,0.9-1.6c0.3-0.5,0.7-0.9,1.1-1.3c0.4-0.4,0.8-0.7,1.3-0.9c0.5-0.2,0.9-0.4,1.4-0.4
			c0.4,0,0.7,0.1,1,0.3c0.3,0.2,0.5,0.4,0.7,0.7c0.2,0.3,0.3,0.6,0.4,1c0.1,0.4,0.1,0.7,0.1,1.1C38.8,13.4,38.8,13.6,38.7,13.9
			L38.7,13.9z"/>
	</g>
	<g>
		<path class="st0" d="M44.7,7.2c0,0.2,0,0.5-0.1,0.7c0,0.3-0.1,0.5-0.2,0.8c0.4,0,0.7,0,1.1,0.1c0.3,0,0.7,0.1,1,0.2
			c0.3,0.1,0.6,0.3,0.8,0.5c0.2,0.2,0.4,0.5,0.6,0.8h0c0,0.1,0,0.1,0,0.2c-0.1,0.1-0.1,0.1-0.2,0.1c-0.4-0.4-0.8-0.6-1.3-0.7
			c-0.5-0.1-1.1-0.2-1.7-0.2h-0.3c-0.1,0.4-0.2,0.8-0.3,1.2c-0.1,0.4-0.2,0.8-0.3,1.2l-0.2,1l0,0.2c-0.1,0.2-0.1,0.5-0.2,0.9
			c-0.1,0.4-0.2,0.8-0.3,1.2c-0.1,0.4-0.2,0.9-0.2,1.3c-0.1,0.4-0.1,0.8-0.1,1.2c0,0.2,0,0.5,0.1,0.6c0,0.2,0.1,0.3,0.2,0.4
			c0.1,0.1,0.2,0.1,0.4,0c0.2-0.1,0.4-0.2,0.6-0.3c0.3-0.2,0.5-0.5,0.8-0.8c0.3-0.3,0.5-0.7,0.7-1.1c0.2-0.4,0.4-0.8,0.6-1.1
			c0.2-0.4,0.4-0.7,0.5-1h0c0.1-0.2,0.2-0.5,0.3-0.6c0.1-0.2,0.2-0.3,0.3-0.5c0,0,0.1,0,0.1,0c0.1,0,0.2,0.1,0.3,0.2l-0.5,1h0
			c-0.3,0.6-0.6,1.2-0.9,1.8c-0.3,0.6-0.7,1.2-1,1.7c-0.4,0.5-0.8,1-1.2,1.3c-0.4,0.3-0.9,0.5-1.3,0.5c-0.8,0-1.3-0.2-1.6-0.6
			c-0.3-0.4-0.4-0.9-0.4-1.6c0-0.1,0-0.2,0-0.3c0-0.1,0-0.2,0-0.3c0-0.3,0.1-0.7,0.2-1.2c0.1-0.5,0.2-1.1,0.3-1.7
			c0.1-0.6,0.3-1.2,0.4-1.9c0.2-0.7,0.3-1.3,0.4-1.9l0.2-0.7c-0.3,0-0.6,0-0.8,0.1c-0.3,0-0.5,0-0.8,0c-0.5,0-1-0.1-1.4-0.2
			c-0.4-0.1-0.7-0.4-0.8-0.7c0,0,0-0.1,0-0.1c0-0.1,0-0.1,0-0.1c0,0,0-0.1,0.1-0.1c0,0,0.1,0,0.2,0.1l0,0c0.3,0.1,0.5,0.2,0.8,0.2
			C39.8,9,40.1,9,40.4,9c0.3,0,0.6,0,1,0c0.3,0,0.7-0.1,1-0.1c0.1-0.5,0.2-1,0.3-1.4c0.1-0.4,0.1-0.7,0.2-0.9c0-0.1,0-0.3,0-0.4
			c0-0.1,0-0.2,0-0.3c0,0,0-0.1,0-0.1c0,0,0-0.1,0-0.1c0-0.1,0.1-0.2,0.2-0.2c0.1,0,0.2-0.1,0.3-0.1c0.3,0,0.6,0.1,0.8,0.2
			c0.2,0.1,0.4,0.2,0.5,0.4c0.1,0.2,0.2,0.4,0.2,0.6C44.7,6.8,44.7,7,44.7,7.2z"/>
	</g>
	<g>
		<path class="st0" d="M47.2,11.4c0-0.1,0-0.3,0-0.4c0-0.1,0-0.2,0-0.2c0-0.1,0.1-0.2,0.2-0.2c0.1,0,0.2,0,0.3,0
			c0.4,0.1,0.6,0.3,0.8,0.4c0.2,0.2,0.2,0.4,0.2,0.6c0,0.1,0,0.3,0,0.4c0,0.1-0.1,0.3-0.1,0.5c-0.1,0.3-0.2,0.6-0.3,1
			c-0.1,0.4-0.2,0.8-0.3,1.2c-0.1,0.4-0.2,0.9-0.3,1.3c-0.1,0.4-0.1,0.8-0.2,1.2c0,0.1,0,0.2,0,0.3c0,0.1,0,0.2,0,0.2
			c0,0.3,0,0.5,0.1,0.7c0.1,0.2,0.2,0.3,0.3,0.3c0.1,0,0.3-0.1,0.4-0.2c0.2-0.1,0.3-0.3,0.5-0.6c0.2-0.2,0.4-0.5,0.6-0.8
			c0.2-0.3,0.4-0.6,0.6-0.9c0.2-0.3,0.4-0.7,0.5-1c0.2-0.3,0.3-0.6,0.5-0.9c0.1-0.2,0.2-0.4,0.3-0.5c0.1-0.2,0.2-0.3,0.2-0.4
			c0.1,0,0.1-0.1,0.2-0.1c0.1,0,0.2,0.1,0.3,0.3l-0.1,0.3c-0.2,0.3-0.4,0.7-0.6,1.2c-0.2,0.4-0.4,0.9-0.7,1.3
			c-0.3,0.4-0.5,0.9-0.8,1.3c-0.3,0.4-0.5,0.8-0.8,1.1c-0.3,0.3-0.5,0.6-0.8,0.8c-0.3,0.2-0.5,0.3-0.8,0.3c-0.3,0-0.5-0.1-0.7-0.2
			c-0.2-0.1-0.4-0.3-0.5-0.5c-0.1-0.2-0.2-0.5-0.3-0.7c-0.1-0.3-0.1-0.6-0.1-0.9c0-0.1,0-0.2,0-0.3c0-0.1,0-0.2,0-0.3
			c0.1-0.8,0.2-1.7,0.4-2.5c0.2-0.8,0.5-1.6,0.7-2.4L47.2,11.4L47.2,11.4z M49,5.8c0.1-0.1,0.2-0.1,0.4-0.1c0.2,0,0.3,0.1,0.4,0.2
			C50,6,50.1,6.1,50.1,6.3c0.1,0.2,0.1,0.4,0,0.6c-0.1,0.2-0.2,0.5-0.4,0.7c-0.2,0.3-0.4,0.6-0.6,0.8c-0.2,0.3-0.5,0.5-0.8,0.7
			c-0.3,0.2-0.6,0.3-0.8,0.3c-0.2,0-0.3,0-0.5-0.1c-0.2-0.1-0.3-0.2-0.4-0.4c0-0.1,0-0.1,0-0.1c0.1,0,0.2,0,0.3,0
			c0.3-0.1,0.5-0.3,0.8-0.6c0.2-0.3,0.4-0.6,0.6-0.9c0.2-0.3,0.3-0.6,0.4-0.9C48.8,6.2,48.9,6,49,5.8z"/>
	</g>
	<g>
		<path class="st0" d="M57.3,13.9c0,0-0.1,0.1-0.1,0.1c-0.1,0-0.1,0-0.2,0c-0.1,0-0.2-0.1-0.3-0.2c0-0.1,0.1-0.2,0.1-0.3
			c0-0.1,0-0.2,0-0.3c0-0.2,0-0.4,0-0.7c0-0.2-0.1-0.4-0.2-0.6c-0.1-0.2-0.2-0.3-0.4-0.5c-0.2-0.1-0.4-0.2-0.6-0.2
			c-0.3,0-0.6,0.1-0.9,0.4c-0.3,0.2-0.6,0.5-0.9,0.9c-0.3,0.4-0.5,0.8-0.8,1.2c-0.2,0.5-0.5,0.9-0.7,1.4c-0.2,0.5-0.3,0.9-0.5,1.3
			c-0.1,0.4-0.2,0.7-0.2,1c0,0.1,0,0.2,0,0.4c0,0.1,0,0.3,0.1,0.4c0,0.1,0.1,0.2,0.2,0.3c0.1,0.1,0.2,0.1,0.4,0.1
			c0.3,0,0.5-0.1,0.8-0.4c0.3-0.3,0.6-0.6,0.9-1c0.3-0.4,0.5-0.8,0.8-1.2c0.2-0.4,0.4-0.8,0.6-1.1c0-0.1,0.1-0.2,0.1-0.3
			c0.1-0.1,0.1-0.3,0.1-0.4c0-0.1,0-0.2,0.1-0.2c0.1,0,0.2-0.1,0.4-0.1c0.5,0,0.9,0.2,1.1,0.4c0.2,0.2,0.3,0.4,0.3,0.7
			c0,0.3,0,0.6-0.1,0.9c-0.1,0.3-0.1,0.6-0.2,0.9c0,0.1,0,0.2,0,0.3c0,0.1,0,0.3-0.1,0.4c0,0.2,0,0.3,0,0.5c0,0.2,0,0.3,0,0.4
			c0,0.1,0.1,0.2,0.1,0.2c0.1,0,0.1,0,0.2-0.1c0.2-0.2,0.4-0.5,0.7-0.8c0.2-0.3,0.5-0.7,0.7-1c0.2-0.4,0.4-0.7,0.7-1.1
			c0.2-0.4,0.4-0.7,0.6-1c0.1-0.2,0.2-0.4,0.3-0.6c0.1-0.2,0.2-0.3,0.2-0.5c0.1,0,0.1,0,0.2,0c0.1,0,0.1,0,0.2,0.1
			c0,0,0.1,0.1,0.1,0.2l-0.1,0.3c-0.1,0.2-0.3,0.5-0.4,0.8c-0.2,0.3-0.3,0.6-0.5,1c-0.2,0.4-0.4,0.7-0.6,1.1c-0.2,0.4-0.4,0.7-0.6,1
			c-0.2,0.3-0.4,0.6-0.6,0.9c-0.2,0.3-0.4,0.5-0.6,0.6c-0.2,0.1-0.4,0.3-0.6,0.4c-0.2,0.1-0.5,0.1-0.7,0.1c-0.3,0-0.5-0.1-0.7-0.3
			c-0.2-0.2-0.3-0.5-0.4-0.8C55,18.4,55,18.1,55,17.8c0-0.3,0-0.6,0-0.8c0,0,0,0,0,0c0,0,0,0,0-0.1c-0.2,0.4-0.5,0.8-0.8,1.1
			c-0.3,0.4-0.6,0.7-0.9,1c-0.3,0.3-0.6,0.5-1,0.7c-0.3,0.2-0.7,0.3-1,0.3c-0.3,0-0.6-0.1-0.8-0.2c-0.2-0.1-0.4-0.3-0.6-0.5
			c-0.1-0.2-0.2-0.4-0.3-0.7c-0.1-0.3-0.1-0.5-0.1-0.8c0-0.1,0-0.1,0-0.2c0-0.1,0-0.1,0-0.2c0.1-0.4,0.2-0.9,0.3-1.4
			c0.2-0.5,0.4-1,0.6-1.6c0.3-0.5,0.6-1.1,0.9-1.6c0.3-0.5,0.7-0.9,1.1-1.3c0.4-0.4,0.8-0.7,1.3-0.9c0.5-0.2,0.9-0.4,1.4-0.4
			c0.4,0,0.7,0.1,1,0.3c0.3,0.2,0.5,0.4,0.7,0.7c0.2,0.3,0.3,0.6,0.4,1c0.1,0.4,0.1,0.7,0.1,1.1C57.5,13.4,57.4,13.6,57.3,13.9
			L57.3,13.9z"/>
	</g>
	<g>
		<path class="st0" d="M60,8.3c0.2-0.1,0.3-0.2,0.5-0.3C60.8,8,61,7.9,61.2,7.9c0.1,0,0.3,0,0.4,0.1c0.1,0,0.3,0.1,0.4,0.2
			c0.1,0.1,0.2,0.2,0.2,0.3c0.1,0.1,0.1,0.3,0.1,0.4c0,0.3-0.1,0.6-0.2,0.9c-0.1,0.3-0.3,0.7-0.4,1.1c-0.1,0.2-0.2,0.4-0.2,0.6
			c-0.1,0.2-0.2,0.4-0.2,0.6c0.3,0.5,0.6,1,0.9,1.5c0.3,0.5,0.6,1,0.8,1.5c0.2,0.5,0.4,0.9,0.6,1.3c0.1,0.4,0.2,0.8,0.2,1.1
			c0.2-0.3,0.4-0.6,0.6-0.9c0.2-0.3,0.4-0.6,0.5-0.9c0.2-0.3,0.3-0.6,0.5-0.9c0.1-0.3,0.3-0.5,0.4-0.7c0,0,0,0,0,0c0,0,0,0,0,0
			l0.1-0.2h0c0-0.1,0.1-0.2,0.1-0.2c0-0.1,0.1-0.1,0.2-0.1c0.2,0,0.3,0.1,0.3,0.3l-0.1,0.2l0,0c-0.1,0.2-0.3,0.5-0.4,0.9
			c-0.2,0.3-0.3,0.7-0.5,1c-0.2,0.4-0.4,0.7-0.6,1.1c-0.2,0.4-0.4,0.7-0.7,1.1c-0.2,0.3-0.5,0.7-0.7,0.9c-0.2,0.3-0.5,0.5-0.7,0.7
			c-0.2,0.1-0.4,0.3-0.7,0.4c-0.3,0.1-0.5,0.2-0.8,0.3c-0.3,0.1-0.5,0.1-0.8,0.2c-0.3,0-0.5,0.1-0.8,0.1c-0.3,0-0.5,0-0.8-0.1
			c-0.2-0.1-0.5-0.1-0.6-0.2c-0.2-0.1-0.3-0.2-0.4-0.4c-0.1-0.2-0.1-0.4-0.1-0.6c0-0.1,0.1-0.2,0.2-0.4c0.1-0.1,0.2-0.2,0.4-0.2
			c0.1,0,0.2,0,0.2,0.1c0,0.1,0,0.2,0,0.3c0,0.1,0,0.2,0.1,0.3c0.1,0.1,0.1,0.1,0.3,0.2c0.1,0,0.2,0.1,0.4,0.1c0.1,0,0.3,0,0.4,0
			c0.7,0,1.2-0.2,1.5-0.7c0.3-0.4,0.5-1,0.5-1.7c0-0.2,0-0.5-0.1-0.8c-0.1-0.3-0.1-0.6-0.2-0.9c-0.1-0.3-0.2-0.6-0.4-0.9
			c-0.1-0.3-0.3-0.6-0.4-0.8l-0.6,1.3L59.4,15l0.7-1.6c-0.3-0.4-0.5-0.8-0.7-1.3c-0.2-0.5-0.3-1-0.3-1.6c0-0.4,0.1-0.8,0.2-1.2
			C59.4,8.9,59.7,8.6,60,8.3z M61,11.3c0.1-0.2,0.2-0.4,0.2-0.6c0.1-0.2,0.2-0.4,0.2-0.6c0.1-0.2,0.1-0.4,0.2-0.6c0-0.2,0-0.3,0-0.4
			h0c-0.1-0.1-0.1-0.2-0.2-0.2c-0.1,0-0.2,0-0.2,0.1c-0.1,0.1-0.2,0.3-0.2,0.4c-0.1,0.2-0.1,0.4-0.2,0.6s-0.1,0.5-0.1,0.7
			c0,0.3,0.1,0.5,0.2,0.8L61,11.3z"/>
	</g>
</g>
<rect x="0.1" y="0.1" class="st1" width="75.1" height="28.9"/>
</svg>
